<mxfile host="65bd71144e">
    <diagram id="mTcPPC0kq77h2OHFGYaz" name="第 1 页">
        <mxGraphModel dx="820" dy="659" grid="1" gridSize="10" guides="1" tooltips="1" connect="1" arrows="1" fold="1" page="1" pageScale="1" pageWidth="827" pageHeight="1169" math="0" shadow="0">
            <root>
                <mxCell id="0"/>
                <mxCell id="1" parent="0"/>
                <mxCell id="3" value="div" style="whiteSpace=wrap;html=1;" vertex="1" parent="1">
                    <mxGeometry x="140" y="150" width="120" height="60" as="geometry"/>
                </mxCell>
                <mxCell id="4" value="" style="edgeStyle=none;orthogonalLoop=1;jettySize=auto;html=1;" edge="1" parent="1">
                    <mxGeometry width="100" relative="1" as="geometry">
                        <mxPoint x="130" y="220" as="sourcePoint"/>
                        <mxPoint x="100" y="290" as="targetPoint"/>
                        <Array as="points"/>
                    </mxGeometry>
                </mxCell>
                <mxCell id="5" value="text" style="whiteSpace=wrap;html=1;" vertex="1" parent="1">
                    <mxGeometry x="40" y="310" width="120" height="60" as="geometry"/>
                </mxCell>
                <mxCell id="6" value="p" style="whiteSpace=wrap;html=1;" vertex="1" parent="1">
                    <mxGeometry x="320" y="310" width="120" height="60" as="geometry"/>
                </mxCell>
                <mxCell id="8" value="" style="edgeStyle=none;orthogonalLoop=1;jettySize=auto;html=1;" edge="1" parent="1">
                    <mxGeometry width="100" relative="1" as="geometry">
                        <mxPoint x="260" y="230" as="sourcePoint"/>
                        <mxPoint x="320" y="300" as="targetPoint"/>
                        <Array as="points"/>
                    </mxGeometry>
                </mxCell>
                <mxCell id="9" value="div" style="whiteSpace=wrap;html=1;" vertex="1" parent="1">
                    <mxGeometry x="610" y="140" width="120" height="60" as="geometry"/>
                </mxCell>
                <mxCell id="10" value="div" style="whiteSpace=wrap;html=1;" vertex="1" parent="1">
                    <mxGeometry x="490" y="310" width="120" height="60" as="geometry"/>
                </mxCell>
                <mxCell id="12" value="p" style="whiteSpace=wrap;html=1;" vertex="1" parent="1">
                    <mxGeometry x="750" y="320" width="120" height="60" as="geometry"/>
                </mxCell>
                <mxCell id="13" value="" style="edgeStyle=none;orthogonalLoop=1;jettySize=auto;html=1;" edge="1" parent="1">
                    <mxGeometry width="100" relative="1" as="geometry">
                        <mxPoint x="610" y="210" as="sourcePoint"/>
                        <mxPoint x="550" y="300" as="targetPoint"/>
                        <Array as="points"/>
                    </mxGeometry>
                </mxCell>
                <mxCell id="15" value="" style="edgeStyle=none;orthogonalLoop=1;jettySize=auto;html=1;" edge="1" parent="1">
                    <mxGeometry width="100" relative="1" as="geometry">
                        <mxPoint x="730" y="210" as="sourcePoint"/>
                        <mxPoint x="780" y="300" as="targetPoint"/>
                        <Array as="points"/>
                    </mxGeometry>
                </mxCell>
                <mxCell id="16" value="" style="edgeStyle=none;orthogonalLoop=1;jettySize=auto;html=1;" edge="1" parent="1">
                    <mxGeometry width="100" relative="1" as="geometry">
                        <mxPoint x="490" y="380" as="sourcePoint"/>
                        <mxPoint x="490" y="470" as="targetPoint"/>
                        <Array as="points"/>
                    </mxGeometry>
                </mxCell>
                <mxCell id="17" value="" style="edgeStyle=none;orthogonalLoop=1;jettySize=auto;html=1;" edge="1" parent="1">
                    <mxGeometry width="100" relative="1" as="geometry">
                        <mxPoint x="600" y="380" as="sourcePoint"/>
                        <mxPoint x="600" y="470" as="targetPoint"/>
                        <Array as="points"/>
                    </mxGeometry>
                </mxCell>
                <mxCell id="18" value="p1" style="text;html=1;align=center;verticalAlign=middle;resizable=0;points=[];autosize=1;strokeColor=none;fillColor=none;" vertex="1" parent="1">
                    <mxGeometry x="450" y="485" width="40" height="30" as="geometry"/>
                </mxCell>
                <mxCell id="19" value="p1" style="text;html=1;align=center;verticalAlign=middle;resizable=0;points=[];autosize=1;strokeColor=none;fillColor=none;" vertex="1" parent="1">
                    <mxGeometry x="580" y="485" width="40" height="30" as="geometry"/>
                </mxCell>
            </root>
        </mxGraphModel>
    </diagram>
</mxfile>
